<?xml version="1.0" encoding="utf-8"?>
<!-- Generator: Adobe Illustrator 18.1.1, SVG Export Plug-In . SVG Version: 6.00 Build 0)  -->
<!DOCTYPE svg PUBLIC "-//W3C//DTD SVG 1.1//EN" "http://www.w3.org/Graphics/SVG/1.1/DTD/svg11.dtd">
<svg version="1.1" id="Layer_1" xmlns="http://www.w3.org/2000/svg" xmlns:xlink="http://www.w3.org/1999/xlink" x="0px" y="0px"
	 viewBox="-132 743 264 98" enable-background="new -132 743 264 98" xml:space="preserve">
<g>
	<path fill="#919396" d="M-87.9,829c-0.1,0.2-0.2,0.3-0.4,0.3c-0.3,0-0.8-0.5-1.6-0.5c-0.7,0-1,0.3-1,0.8c0,1.3,3.6,0.6,3.6,3.3
		c0,1.5-1.1,2.7-2.9,2.7c-1,0-2.2-0.4-2.8-1.1l0.6-0.9c0.1-0.1,0.2-0.2,0.4-0.2c0.4,0,0.9,0.7,1.9,0.7c0.7,0,1.1-0.3,1.1-0.9
		c0-1.5-3.6-0.4-3.6-3.5c0-1.2,1-2.4,2.8-2.4c1,0,1.9,0.3,2.5,0.9L-87.9,829z"/>
	<path fill="#919396" d="M-84.6,835.5h-1.9v-8.1h1.9V835.5z"/>
	<path fill="#919396" d="M-78.8,832.7c0.1-0.3,0.3-0.6,0.4-0.9l2.1-4.1c0.2-0.3,0.3-0.3,0.6-0.3h1.4v8.1h-1.7v-4.7
		c0-0.2,0-0.5,0-0.7l-2.2,4.2c-0.1,0.3-0.4,0.4-0.7,0.4h-0.3c-0.3,0-0.5-0.1-0.7-0.4l-2.2-4.2c0,0.3,0,0.5,0,0.7v4.7h-1.7v-8.1h1.4
		c0.3,0,0.5,0,0.6,0.3l2.1,4.1C-79.1,832.1-78.9,832.4-78.8,832.7z"/>
	<path fill="#919396" d="M-71.3,832.8v2.7h-1.9v-8.1h2.9c2.3,0,3.3,1.2,3.3,2.7c0,1.6-1,2.8-3.3,2.8H-71.3z M-71.3,831.3h1
		c1,0,1.4-0.5,1.4-1.3c0-0.7-0.4-1.2-1.4-1.2h-1V831.3z"/>
	<path fill="#919396" d="M-64.4,834h3v1.5h-4.9v-8.1h1.9V834z"/>
	<path fill="#919396" d="M-58.7,835.5h-1.9v-8.1h1.9V835.5z"/>
	<path fill="#919396" d="M-52.3,827.4v1.5h-3.3v2.1h2.8v1.5h-2.8v3.2h-1.9v-8.1H-52.3z"/>
	<path fill="#919396" d="M-47.5,832.4v3.1h-1.9v-3.1l-2.9-5h1.7c0.3,0,0.5,0.2,0.6,0.4l1.1,2.4c0.2,0.4,0.3,0.7,0.5,1
		c0.1-0.3,0.3-0.6,0.5-1l1.1-2.4c0.1-0.2,0.3-0.4,0.6-0.4h1.7L-47.5,832.4z"/>
	<path fill="#919396" d="M-42.2,835.5h-1.9v-8.1h1.9V835.5z"/>
	<path fill="#919396" d="M-39.4,827.6l3.9,4.9c0-0.3,0-0.6,0-0.9v-4.3h1.7v8.1h-1c-0.3,0-0.5-0.1-0.7-0.3l-3.8-4.8
		c0,0.3,0,0.6,0,0.8v4.4H-41v-8.1h1C-39.7,827.4-39.6,827.4-39.4,827.6z"/>
	<path fill="#919396" d="M-27.8,833.9v-1.2h-0.8c-0.2,0-0.4-0.1-0.4-0.3v-1h2.9v3.4c-0.8,0.6-1.8,0.9-3.1,0.9
		c-2.4,0-4.2-1.8-4.2-4.2c0-2.4,1.7-4.2,4.3-4.2c1.4,0,2.4,0.5,3,1.1l-0.5,0.8c-0.1,0.2-0.3,0.3-0.4,0.3c-0.1,0-0.2,0-0.3-0.1
		c-0.6-0.4-1-0.5-1.8-0.5c-1.4,0-2.3,1-2.3,2.6c0,1.7,1,2.7,2.4,2.7C-28.5,834.1-28.1,834-27.8,833.9z"/>
	<path fill="#919396" d="M-21.4,835.5v-8.1h3c2.2,0,3.1,0.9,3.1,2.2c0,0.7-0.4,1.4-1.4,1.7c1.1,0.3,1.6,0.8,1.6,1.8
		c0,1.4-1.1,2.5-3,2.5H-21.4z M-19.5,830.8h1c0.8,0,1.4-0.2,1.4-1c0-0.8-0.4-1-1.2-1h-1.1V830.8z M-19.5,832v2h1.3
		c1,0,1.2-0.6,1.2-1.1c0-0.6-0.3-1-1.2-1H-19.5z"/>
	<path fill="#919396" d="M-9.4,832.2v-4.8h1.9v4.8c0,2-1.3,3.4-3.5,3.4c-2.2,0-3.5-1.4-3.5-3.4v-4.8h1.9v4.8c0,1.1,0.6,1.8,1.6,1.8
		S-9.4,833.3-9.4,832.2z"/>
	<path fill="#919396" d="M-2,829c-0.1,0.2-0.2,0.3-0.4,0.3c-0.3,0-0.8-0.5-1.6-0.5c-0.7,0-1,0.3-1,0.8c0,1.3,3.6,0.6,3.6,3.3
		c0,1.5-1.1,2.7-2.9,2.7c-1,0-2.2-0.4-2.8-1.1l0.6-0.9c0.1-0.1,0.2-0.2,0.4-0.2c0.4,0,0.9,0.7,1.9,0.7c0.7,0,1.1-0.3,1.1-0.9
		c0-1.5-3.6-0.4-3.6-3.5c0-1.2,1-2.4,2.8-2.4c1,0,1.9,0.3,2.5,0.9L-2,829z"/>
	<path fill="#919396" d="M1.3,835.5h-1.9v-8.1h1.9V835.5z"/>
	<path fill="#919396" d="M4.1,827.6l3.9,4.9c0-0.3,0-0.6,0-0.9v-4.3h1.7v8.1h-1c-0.3,0-0.5-0.1-0.7-0.3l-3.8-4.8c0,0.3,0,0.6,0,0.8
		v4.4H2.5v-8.1h1C3.8,827.4,3.9,827.4,4.1,827.6z"/>
	<path fill="#919396" d="M15.9,827.4v1.5h-3.3v1.9h2.6v1.4h-2.6v1.9h3.3v1.5h-5.2v-8.1H15.9z"/>
	<path fill="#919396" d="M21.2,829c-0.1,0.2-0.2,0.3-0.4,0.3c-0.3,0-0.8-0.5-1.6-0.5c-0.7,0-1,0.3-1,0.8c0,1.3,3.6,0.6,3.6,3.3
		c0,1.5-1.1,2.7-2.9,2.7c-1,0-2.2-0.4-2.8-1.1l0.6-0.9c0.1-0.1,0.2-0.2,0.4-0.2c0.4,0,0.9,0.7,1.9,0.7c0.7,0,1.1-0.3,1.1-0.9
		c0-1.5-3.6-0.4-3.6-3.5c0-1.2,1-2.4,2.8-2.4c1,0,1.9,0.3,2.5,0.9L21.2,829z"/>
	<path fill="#919396" d="M27,829c-0.1,0.2-0.2,0.3-0.4,0.3c-0.3,0-0.8-0.5-1.6-0.5c-0.7,0-1,0.3-1,0.8c0,1.3,3.6,0.6,3.6,3.3
		c0,1.5-1.1,2.7-2.9,2.7c-1,0-2.2-0.4-2.8-1.1l0.6-0.9c0.1-0.1,0.2-0.2,0.4-0.2c0.4,0,0.9,0.7,1.9,0.7c0.7,0,1.1-0.3,1.1-0.9
		c0-1.5-3.6-0.4-3.6-3.5c0-1.2,1-2.4,2.8-2.4c1,0,1.9,0.3,2.5,0.9L27,829z"/>
	<path fill="#919396" d="M37.7,833.5l0.7,0.8c-0.7,0.9-1.6,1.3-3,1.3c-2.5,0-4-1.8-4-4.2c0-2.4,1.7-4.2,4.3-4.2
		c1.2,0,2.2,0.4,2.8,1.1l-0.6,0.9c-0.1,0.1-0.2,0.2-0.4,0.2c-0.4,0-0.6-0.6-1.8-0.6c-1.4,0-2.3,1-2.3,2.6c0,1.7,1,2.6,2.2,2.6
		c0.7,0,1.1-0.1,1.5-0.5c0.1-0.1,0.2-0.1,0.3-0.1C37.6,833.4,37.6,833.4,37.7,833.5z"/>
	<path fill="#919396" d="M42.9,835.6c-2.5,0-4.2-1.8-4.2-4.2c0-2.4,1.7-4.2,4.2-4.2c2.5,0,4.2,1.8,4.2,4.2
		C47.1,833.8,45.4,835.6,42.9,835.6z M42.9,828.8c-1.5,0-2.3,1-2.3,2.6c0,1.6,0.8,2.6,2.3,2.6c1.4,0,2.3-1,2.3-2.6
		C45.1,829.8,44.3,828.8,42.9,828.8z"/>
	<path fill="#919396" d="M52.3,832.7c0.1-0.3,0.3-0.6,0.4-0.9l2.1-4.1c0.2-0.3,0.3-0.3,0.6-0.3h1.4v8.1h-1.7v-4.7c0-0.2,0-0.5,0-0.7
		l-2.2,4.2c-0.1,0.3-0.4,0.4-0.7,0.4h-0.3c-0.3,0-0.5-0.1-0.7-0.4l-2.2-4.2c0,0.3,0,0.5,0,0.7v4.7h-1.7v-8.1h1.4
		c0.3,0,0.5,0,0.6,0.3l2.1,4.1C52,832.1,52.2,832.4,52.3,832.7z"/>
	<path fill="#919396" d="M62.5,832.7c0.1-0.3,0.3-0.6,0.4-0.9l2.1-4.1c0.2-0.3,0.3-0.3,0.6-0.3h1.4v8.1h-1.7v-4.7c0-0.2,0-0.5,0-0.7
		l-2.2,4.2c-0.1,0.3-0.4,0.4-0.7,0.4h-0.3c-0.3,0-0.5-0.1-0.7-0.4l-2.2-4.2c0,0.3,0,0.5,0,0.7v4.7h-1.7v-8.1h1.4
		c0.3,0,0.5,0,0.6,0.3l2.1,4.1C62.2,832.1,62.4,832.4,62.5,832.7z"/>
	<path fill="#919396" d="M73.1,832.2v-4.8H75v4.8c0,2-1.3,3.4-3.5,3.4c-2.2,0-3.5-1.4-3.5-3.4v-4.8h1.9v4.8c0,1.1,0.6,1.8,1.6,1.8
		S73.1,833.3,73.1,832.2z"/>
	<path fill="#919396" d="M77.6,827.6l3.9,4.9c0-0.3,0-0.6,0-0.9v-4.3H83v8.1h-1c-0.3,0-0.5-0.1-0.7-0.3l-3.8-4.8c0,0.3,0,0.6,0,0.8
		v4.4h-1.7v-8.1h1C77.3,827.4,77.4,827.4,77.6,827.6z"/>
	<path fill="#919396" d="M86.2,835.5h-1.9v-8.1h1.9V835.5z"/>
	<path fill="#919396" d="M93.1,833.5l0.7,0.8c-0.7,0.9-1.6,1.3-3,1.3c-2.5,0-4-1.8-4-4.2c0-2.4,1.7-4.2,4.3-4.2
		c1.2,0,2.2,0.4,2.8,1.1l-0.6,0.9c-0.1,0.1-0.2,0.2-0.4,0.2c-0.4,0-0.6-0.6-1.8-0.6c-1.4,0-2.3,1-2.3,2.6c0,1.7,1,2.6,2.2,2.6
		c0.7,0,1.1-0.1,1.5-0.5c0.1-0.1,0.2-0.1,0.3-0.1C93,833.4,93,833.4,93.1,833.5z"/>
	<path fill="#919396" d="M102,835.5h-1.5c-0.3,0-0.5-0.2-0.6-0.4l-0.5-1.4h-3.1l-0.5,1.4c-0.1,0.2-0.3,0.4-0.6,0.4h-1.5l3.1-8.1h1.9
		L102,835.5z M96.8,832.4H99l-0.7-2.2c-0.1-0.3-0.2-0.7-0.4-1.1c-0.1,0.5-0.3,0.8-0.4,1.1L96.8,832.4z"/>
	<path fill="#919396" d="M107.4,827.4v1.5h-2.3v6.6h-1.9v-6.6H101v-1.5H107.4z"/>
	<path fill="#919396" d="M110,835.5h-1.9v-8.1h1.9V835.5z"/>
	<path fill="#919396" d="M115,835.6c-2.5,0-4.2-1.8-4.2-4.2c0-2.4,1.7-4.2,4.2-4.2c2.5,0,4.2,1.8,4.2,4.2
		C119.2,833.8,117.5,835.6,115,835.6z M115,828.8c-1.5,0-2.3,1-2.3,2.6c0,1.6,0.8,2.6,2.3,2.6c1.4,0,2.3-1,2.3-2.6
		C117.3,829.8,116.5,828.8,115,828.8z"/>
	<path fill="#919396" d="M121.5,827.6l3.9,4.9c0-0.3,0-0.6,0-0.9v-4.3h1.7v8.1h-1c-0.3,0-0.5-0.1-0.7-0.3l-3.8-4.8
		c0,0.3,0,0.6,0,0.8v4.4h-1.7v-8.1h1C121.2,827.4,121.3,827.4,121.5,827.6z"/>
</g>
<g>
	<path fill="#0957A4" d="M-62.6,794.1c-0.5-1.8-1.5-3.9-3.2-5.7c-1.6-1.6-3.2-2.4-4.7-2.8c-1.5-0.4-2.7-0.6-3.1-0.6
		c-0.1,0-0.1,0-0.2,0H-93v37h1.4h7.6v-29h8.1c5.5,0,4.9,6,4.9,6v23h9v-24.2l0,0v-0.1C-62,797.3-62.2,795.9-62.6,794.1z"/>
	<path fill="#0957A4" d="M-50,806h25v-1.5c0,0,0-0.2,0-0.5c0-0.9,0.1-2.5-0.2-4.8c-0.3-2.2-0.8-4.7-2-6.7l0,0
		c-0.1-0.1-0.9-2-3.1-3.8c-2.3-1.8-5.8-3.6-10.9-3.6s-8.8,1.8-11.2,3.6c-2.2,1.6-3.3,3.3-3.6,3.6c-0.2,0.3-0.7,1.3-1.5,3
		c-0.8,1.9-1.4,4.6-1.4,8c0,0.1,0,0.4,0,0.9c0,1.2-0.1,3.4,0.5,5.8c0.6,2.4,1.7,5.1,3.9,7.4c0.2,0.2,1.1,1.2,3.1,2.3
		c2.1,1.2,5.3,2.2,9.8,2.2c8.4,0,13.7,0,13.7,0l6.1-8h-21.4C-49.4,814-50,808.2-50,806z M-41.6,793c7.1,0,7.6,6,7.6,6h-16
		C-50,799-48.7,793-41.6,793z"/>
	<polygon fill="#0957A4" points="13.9,785 3.5,785 -4.5,796.2 -12.6,785 -23.1,785 -21.2,787.8 -10.1,802.8 -24.2,822 -13.8,822 
		-4.7,809.9 4.2,822 14.6,822 0.7,803.1 	"/>
	<path fill="#0957A4" d="M31,810.1c0-1.5,0-17.1,0-17.1h11v-8H31v-9h-9v9h-4.9l-5.6,8H22v18.3c0,0,0.1,4.2,2.3,7
		c0.7,0.9,1.9,2.2,2.8,2.6c1.4,0.7,2.8,0.8,4,1c1.2,0,10.8,0,10.8,0v-8h-8.3C30.9,814,31,811.6,31,810.1z"/>
	<polygon fill="#0957A4" points="47,822 56,822 56,785 47,785 	"/>
	<polygon fill="#0957A4" points="87.4,785 77.9,810.2 68.5,785 59.4,785 60.2,787.4 73.1,822 82.9,822 96.6,785 	"/>
	<path fill="#0957A4" d="M126.6,794.2c0.2,0.9-0.5-1.9-1.1-2.9c-0.6-1-1.3-1.9-2.3-2.7l0,0c-2.1-1.7-4.4-2.5-6.2-2.9
		c-1.8-0.4-3.1-0.7-3.2-0.7l0,0l0,0H99.5l-2.6,8h16.1c3.1,0,4.1,1.6,4.5,2.2c0.4,0.6,0.4,2.8,0.4,2.8h-6.5c-2.3,0-4.8,0.1-6.9,0.8
		c-2.1,0.7-3.9,1.4-5.4,3.1c-0.7,0.7-1.3,1.7-1.7,2.5c-0.6,1.3-0.9,2.6-1.1,3.7c-0.2,1.1-0.2,2-0.2,2.4c0,0.1,0,0.2,0,0.2v0.1
		c0,0.4,0,1.5,0.3,2.9s0.9,3.1,2.1,4.6l0,0l0,0c0.7,1,1.7,1.7,2.6,2.2c1.4,0.8,2,1.1,3.1,1.3c0.1,0,1.5,0.2,1.5,0.2l21.4,0v-23.8
		C127,798.2,126.4,793.2,126.6,794.2z M109.4,814c-1.4,0-4.6-0.2-4.6-3.6c0-1.3,0.3-2.2,0.7-2.8c0.3-0.5,0.7-0.9,1.2-1.2
		c0.7-0.5,1.5-0.9,2.3-1.1c0.7-0.1,1.4-0.2,1.6-0.2h0.1l0,0l0,0l0,0h7.3v9C118,814,109.7,814,109.4,814z"/>
	<path fill="#F6B31A" d="M-3.8,782.3c5.3,0,9.7-4.3,9.7-9.6c0-5.3-4.3-9.7-9.7-9.7c-5.3,0-9.7,4.3-9.7,9.7
		C-13.5,778-9.1,782.3-3.8,782.3z"/>
	<path fill="#0957A4" d="M51.5,782.8c2.4,0,4.4-2,4.4-4.4c0-2.4-2-4.4-4.4-4.4c-2.4,0-4.4,2-4.4,4.4
		C47.1,780.8,49.1,782.8,51.5,782.8z"/>
</g>
</svg>
