<?xml version="1.0" standalone="no"?>
<!DOCTYPE svg PUBLIC "-//W3C//DTD SVG 20010904//EN"
 "http://www.w3.org/TR/2001/REC-SVG-20010904/DTD/svg10.dtd">
<svg version="1.0" xmlns="http://www.w3.org/2000/svg"
 width="260.000000pt" height="260.000000pt" viewBox="0 0 260.000000 260.000000"
 preserveAspectRatio="xMidYMid meet">
<metadata>
Created by potrace 1.11, written by Peter Selinger 2001-2013
</metadata>
<g transform="translate(0.000000,260.000000) scale(0.100000,-0.100000)"
fill="#000000" stroke="none">
<path d="M1227 2594 c-1 -1 -36 -5 -76 -8 -41 -4 -77 -9 -80 -11 -4 -2 -23 -6
-43 -9 -114 -18 -331 -110 -448 -189 -148 -101 -306 -265 -383 -397 -15 -27
-30 -40 -47 -42 -22 -3 -25 -8 -26 -53 -1 -27 -11 -71 -22 -97 -22 -49 -61
-174 -68 -218 -3 -14 -7 -31 -9 -38 -9 -24 -19 -167 -18 -242 3 -169 29 -309
85 -453 23 -58 32 -101 34 -147 1 -36 2 -70 3 -76 1 -6 16 -10 39 -8 36 3 39
1 85 -64 235 -331 635 -536 1044 -533 97 0 156 6 273 26 118 20 315 104 444
188 124 81 276 229 349 342 l29 45 64 0 c54 0 64 3 65 18 5 87 -1 197 -11 200
-6 2 -7 8 -2 15 22 29 67 216 78 322 60 592 -281 1140 -840 1349 -51 19 -103
37 -117 40 -105 21 -134 26 -175 32 -46 6 -222 13 -227 8z"/>
</g>
</svg>
