<?xml version="1.0" encoding="utf-8"?>
<!-- Generator: Adobe Illustrator 22.1.0, SVG Export Plug-In . SVG Version: 6.00 Build 0)  -->
<svg version="1.1" id="Layer_1" xmlns="http://www.w3.org/2000/svg" xmlns:xlink="http://www.w3.org/1999/xlink" x="0px" y="0px"
	 viewBox="0 0 88.7 14.7" style="enable-background:new 0 0 88.7 14.7;" xml:space="preserve">
<g>
	<path d="M1.7,9V1.9H2V9H1.7z M2.4,9V1.9h1.1V9H2.4z M3.8,9V1.9h0.4V9H3.8z M3.8,10h0.8c0.3,0,0.5,0.1,0.7,0.2
		c0.2,0.1,0.2,0.3,0.2,0.5c0,0.1,0,0.3-0.1,0.4c-0.1,0.1-0.2,0.2-0.3,0.2c0.2,0.1,0.3,0.1,0.4,0.3c0.1,0.1,0.1,0.3,0.1,0.4
		c0,0.2-0.1,0.4-0.3,0.6c-0.2,0.1-0.4,0.2-0.8,0.2H3.8V10z M4.6,11.2c0.4,0,0.7-0.1,0.7-0.4c0-0.1-0.1-0.2-0.2-0.3
		c-0.1-0.1-0.2-0.1-0.5-0.1H4.1v0.9H4.6z M4.7,12.6c0.4,0,0.6-0.2,0.6-0.5c0-0.4-0.2-0.6-0.7-0.6H4.1v1.1H4.7z M5.6,9V1.9H6V9H5.6z
		 M6.3,9V1.9h1.1V9H6.3z"/>
	<path d="M7.8,9V1.9h0.4V9H7.8z M8.5,9V1.9h1.1V9H8.5z M9.9,9V1.9h0.4V9H9.9z M10.1,12.6h0.6v-2.3h-0.5V10h1.4v0.3H11v2.3h0.6v0.3
		h-1.4V12.6z M11.7,9V1.9h1.1V9H11.7z M13.2,9V1.9h0.4V9H13.2z"/>
	<path d="M13.9,9V1.9h0.4V9H13.9z M14.6,9V1.9H15V9H14.6z M15.3,9V1.9h1.1V9H15.3z M16.1,10h0.3l1.2,2.1V10h0.3v0c0,0,0,0,0,0.1
		c0,0,0,0.1,0,0.1v2.6h-0.2l-1.2-2.2v2.2h-0.3V10z M16.8,9V1.9h0.4V9H16.8z M18.6,9V1.9h1.1V9H18.6z"/>
	<path d="M20,9V1.9h1.1V9H20z M21.5,9V1.9h0.4V9H21.5z M23.5,12h-0.9l-0.3,0.8H22l1-2.8h0l1,2.8h-0.3L23.5,12z M22.2,9V1.9h0.4V9
		H22.2z M23.4,11.8l-0.4-1.1l-0.4,1.1H23.4z M24,9V1.9h0.4V9H24z M24.7,9V1.9h1.1V9H24.7z"/>
	<path d="M26.1,9V1.9h1.1V9H26.1z M27.6,9V1.9h0.4V9H27.6z M28.3,9V1.9h0.4V9H28.3z M28.3,10h0.8c0.3,0,0.6,0.1,0.7,0.2
		c0.2,0.1,0.2,0.3,0.2,0.6c0,0.2-0.1,0.3-0.2,0.5s-0.2,0.2-0.4,0.3l0.6,1.2h-0.3l-0.6-1.2h-0.5v1.2h-0.3V10z M29.2,11.3
		c0.2,0,0.3,0,0.4-0.1c0.1-0.1,0.1-0.2,0.1-0.3c0-0.2,0-0.3-0.1-0.4c-0.1-0.1-0.2-0.1-0.4-0.1h-0.5v1H29.2z M29,9V1.9h1.1V9H29z
		 M31.5,9V1.9h0.4V9H31.5z"/>
	<path d="M32.3,9V1.9h1.1V9H32.3z M35.2,11.7L34.3,10h0.4l0.7,1.4L36,10h0.3l-0.8,1.7v1.1h-0.3V11.7z M34.8,9V1.9h0.4V9H34.8z
		 M35.5,9V1.9h1.1V9H35.5z M36.9,9V1.9h0.4V9H36.9z M37.7,9V1.9H38V9H37.7z"/>
	<path d="M38.4,9V1.9h0.4V9H38.4z M39.1,9V1.9h1.1V9H39.1z M40.5,9V1.9h0.4V9H40.5z M40.6,10H41v0c0,0,0,0,0,0.1c0,0,0,0.1,0,0.1
		v2.3h1.3v0.3h-1.7V10z M41.3,9V1.9h0.4V9H41.3z M43.1,9V1.9h1.1V9H43.1z"/>
	<path d="M44.5,9V1.9h1.1V9H44.5z M47.6,12.9c-0.3,0-0.5-0.1-0.7-0.3c-0.2-0.2-0.2-0.4-0.2-0.7V10H47v0c0,0,0,0,0,0.1
		c0,0,0,0.1,0,0.1v1.6c0,0.2,0,0.4,0.1,0.6c0.1,0.1,0.2,0.2,0.5,0.2c0.2,0,0.4-0.1,0.5-0.2c0.1-0.1,0.1-0.3,0.1-0.6V10h0.3v1.8
		c0,0.3-0.1,0.6-0.2,0.8S47.9,12.9,47.6,12.9z M47,9V1.9h0.4V9H47z M47.7,9V1.9h0.4V9H47.7z M48.5,9V1.9h0.4V9H48.5z M49.2,9V1.9
		h1.1V9H49.2z"/>
	<path d="M50.6,9V1.9H51V9H50.6z M51.3,9V1.9h0.4V9H51.3z M52.1,9V1.9h1.1V9H52.1z M52.8,10h0.3l1.2,2.1V10h0.3v0c0,0,0,0,0,0.1
		c0,0,0,0.1,0,0.1v2.6h-0.2l-1.2-2.2v2.2h-0.3V10z M53.5,9V1.9h0.4V9H53.5z M55.3,9V1.9h1.1V9H55.3z"/>
	<path d="M56.7,9V1.9h1.1V9H56.7z M58.2,9V1.9h1.1V9H58.2z M60,12.9c-0.2,0-0.4-0.1-0.6-0.2c-0.2-0.1-0.3-0.3-0.4-0.5
		c-0.1-0.2-0.1-0.5-0.1-0.8c0-0.3,0.1-0.6,0.2-0.8c0.1-0.2,0.2-0.4,0.4-0.5c0.2-0.1,0.3-0.1,0.5-0.1c0.2,0,0.4,0,0.5,0.1
		c0.1,0.1,0.3,0.2,0.3,0.4l-0.3,0.1l0,0l0,0v0c0,0,0-0.1-0.1-0.1c-0.1-0.1-0.1-0.2-0.2-0.2c-0.1,0-0.2-0.1-0.3-0.1
		c-0.2,0-0.4,0.1-0.6,0.3c-0.1,0.2-0.2,0.5-0.2,0.9c0,0.2,0,0.4,0.1,0.6c0.1,0.2,0.2,0.3,0.3,0.4c0.1,0.1,0.3,0.1,0.4,0.1
		c0.1,0,0.2,0,0.3-0.1c0.1-0.1,0.2-0.1,0.3-0.3l0.2,0.2c-0.1,0.2-0.2,0.3-0.3,0.3C60.3,12.8,60.1,12.9,60,12.9z M59.6,9V1.9H60V9
		H59.6z M61.4,9V1.9h0.4V9H61.4z M62.1,9V1.9h0.4V9H62.1z"/>
	<path d="M62.9,9V1.9h1.1V9H62.9z M64.3,9V1.9h0.4V9H64.3z M65,9V1.9h0.4V9H65z M65,10h0.4v0c0,0,0,0,0,0.1c0,0,0,0.1,0,0.1v1h1.1
		V10h0.4v0c0,0,0,0,0,0.1c0,0,0,0.1,0,0.1v2.6h-0.3v-1.3h-1.1v1.3H65V10z M66.8,9V1.9h1.1V9H66.8z M68.3,9V1.9h0.4V9H68.3z"/>
	<path d="M69,9V1.9h0.4V9H69z M69.7,9V1.9h1.1V9H69.7z M71.1,9V1.9h0.4V9H71.1z M71.1,10h0.8c0.3,0,0.5,0.1,0.7,0.2
		c0.2,0.1,0.2,0.3,0.2,0.5c0,0.1,0,0.3-0.1,0.4c-0.1,0.1-0.2,0.2-0.3,0.2c0.2,0.1,0.3,0.1,0.4,0.3c0.1,0.1,0.1,0.3,0.1,0.4
		c0,0.2-0.1,0.4-0.3,0.6c-0.2,0.1-0.4,0.2-0.8,0.2h-0.8V10z M71.9,11.2c0.4,0,0.7-0.1,0.7-0.4c0-0.1-0.1-0.2-0.2-0.3
		c-0.1-0.1-0.2-0.1-0.5-0.1h-0.5v0.9H71.9z M72,12.6c0.4,0,0.6-0.2,0.6-0.5c0-0.4-0.2-0.6-0.7-0.6h-0.5v1.1H72z M72.9,9V1.9h0.4V9
		H72.9z M73.7,9V1.9h1.1V9H73.7z"/>
	<path d="M75.1,9V1.9h1.1V9H75.1z M76.5,9V1.9h0.4V9H76.5z M78.2,12.9c-0.3,0-0.6-0.1-0.7-0.4c-0.2-0.2-0.3-0.6-0.3-1.1
		c0-0.4,0.1-0.8,0.3-1c0.2-0.2,0.4-0.4,0.7-0.4c0.3,0,0.6,0.1,0.7,0.4c0.2,0.3,0.3,0.6,0.3,1c0,0.5-0.1,0.8-0.3,1.1
		C78.7,12.8,78.5,12.9,78.2,12.9z M77.3,9V1.9h1.1V9H77.3z M78.2,12.6c0.2,0,0.4-0.1,0.5-0.3c0.1-0.2,0.2-0.5,0.2-0.9
		c0-0.4-0.1-0.6-0.2-0.8c-0.1-0.2-0.3-0.3-0.5-0.3s-0.4,0.1-0.5,0.3c-0.1,0.2-0.2,0.5-0.2,0.8c0,0.4,0.1,0.7,0.2,0.9
		C77.8,12.5,77.9,12.6,78.2,12.6z M78.7,9V1.9h0.4V9H78.7z M80.5,9V1.9h0.4V9H80.5z"/>
	<path d="M81.2,9V1.9h0.4V9H81.2z M83,9V1.9h0.4V9H83z M84.1,11.4L83.4,10h0.3l0.6,1.1l0.6-1.1h0.3l-0.7,1.4l0.8,1.4h-0.3l-0.6-1.1
		l-0.6,1.1h-0.3L84.1,11.4z M83.7,9V1.9h1.1V9H83.7z M85.2,9V1.9h0.4V9H85.2z M85.9,9V1.9H87V9H85.9z"/>
</g>
</svg>
