<?xml version="1.0" encoding="utf-8"?>
<!-- Generator: Adobe Illustrator 22.0.1, SVG Export Plug-In . SVG Version: 6.00 Build 0)  -->
<svg version="1.1" id="Layer_1" xmlns="http://www.w3.org/2000/svg" xmlns:xlink="http://www.w3.org/1999/xlink" x="0px" y="0px"
	 viewBox="0 0 180.7 60.4" style="enable-background:new 0 0 180.7 60.4;" xml:space="preserve">
<style type="text/css">
	.st0{fill:#F8B400;}
	.st1{fill:#0445A5;}
</style>
<g>
	<circle class="st0" cx="71.7" cy="14.5" r="9.4"/>
	<path class="st1" d="M17.8,26H0v29.3h8.4v-23h7.3c1.7,0,3.1,1.4,3.1,3.1l0,0l0,0v19.9h8.4V35.4C27.2,30.2,23,26,17.8,26z"/>
	<path class="st1" d="M109.9,49h-5.5l0,0l0,0c-1.6-0.1-2.9-1.5-2.9-3.1l0,0l0,0V32.3h8.4V26h-8.4V15.5h-8.4V26h-3.7l-4.7,6.3h8.4
		v13.6c0,5.2,4.2,9.4,9.4,9.4l0,0h7.3v-3.5l0,0L109.9,49L109.9,49z"/>
	<polygon class="st1" points="87.5,26 78,26 71.8,34.4 65.5,26 56,26 67,40.6 56,55.3 65.5,55.3 71.8,46.9 78,55.3 87.5,55.3 
		76.5,40.6 	"/>
	<polygon class="st1" points="145.5,26 138.2,44.7 130.9,26 122.5,26 134,55.3 142.4,55.3 153.9,26 	"/>
	<g>
		<rect x="112" y="26" class="st1" width="8.4" height="29.3"/>
		<rect x="112" y="15.5" class="st1" width="8.4" height="8.4"/>
	</g>
	<path class="st1" d="M44,49c-2.6,0-4.9-2.2-5.8-5.2h20.2c0.2-1,0.3-2.1,0.3-3.1C58.6,32.5,52.1,26,44,26s-14.7,6.6-14.7,14.7
		S35.9,55.3,44,55.3l0,0h9.9l4.7-6.3H44z M44,32.3c2.6,0,4.9,2.2,5.8,5.2H38.1C39.1,34.4,41.3,32.3,44,32.3z"/>
	<path class="st1" d="M171.3,26H156l-2.5,6.3h15.6c1.7,0,3.1,1.4,3.1,3.1l0,0l0,0v2.1h-12.6v0c-4.7,0.3-8.4,4.1-8.4,8.9
		s3.7,8.6,8.4,8.9v0h20.9V35.4C180.7,30.2,176.5,26,171.3,26z M161.9,43.8c0.2,0,0.3,0,0.4-0.1l0,0h10l0,0V49l0,0h-3.5h-6.5l0,0
		c-0.2,0-0.3,0-0.4-0.1c-1.2-0.2-2.1-1.3-2.1-2.6C159.8,45.2,160.6,44.1,161.9,43.8z"/>
</g>
</svg>
